<svg xmlns="http://www.w3.org/2000/svg" xmlns:xlink="http://www.w3.org/1999/xlink" id="processonSvg1000" viewBox="89.0 358.0 857.0 465.125" width="857.0" height="465.125"><defs id="ProcessOnDefs1001"><marker id="ProcessOnMarker1023" markerUnits="userSpaceOnUse" orient="auto" markerWidth="16.23606797749979" markerHeight="10.550836550532098" viewBox="-1.0 -1.3763819204711736 16.23606797749979 10.550836550532098" refX="-1.0" refY="3.8990363547948754"><path id="ProcessOnPath1024" d="M12.0 3.8990363547948754L0.0 7.798072709589751V0.0Z" stroke="#323232" stroke-width="2.0" fill="#323232" transform="matrix(1.0,0.0,0.0,1.0,0.0,0.0)"/></marker><marker id="ProcessOnMarker1039" markerUnits="userSpaceOnUse" orient="auto" markerWidth="16.23606797749979" markerHeight="10.550836550532098" viewBox="-1.0 -1.3763819204711736 16.23606797749979 10.550836550532098" refX="-1.0" refY="3.8990363547948754"><path id="ProcessOnPath1040" d="M12.0 3.8990363547948754L0.0 7.798072709589751V0.0Z" stroke="#323232" stroke-width="2.0" fill="#323232" transform="matrix(1.0,0.0,0.0,1.0,0.0,0.0)"/></marker><marker id="ProcessOnMarker1043" markerUnits="userSpaceOnUse" orient="auto" markerWidth="16.23606797749979" markerHeight="10.550836550532098" viewBox="-1.0 -1.3763819204711736 16.23606797749979 10.550836550532098" refX="-1.0" refY="3.8990363547948754"><path id="ProcessOnPath1044" d="M12.0 3.8990363547948754L0.0 7.798072709589751V0.0Z" stroke="#323232" stroke-width="2.0" fill="#323232" transform="matrix(1.0,0.0,0.0,1.0,0.0,0.0)"/></marker><marker id="ProcessOnMarker1053" markerUnits="userSpaceOnUse" orient="auto" markerWidth="16.23606797749979" markerHeight="10.550836550532098" viewBox="-1.0 -1.3763819204711736 16.23606797749979 10.550836550532098" refX="-1.0" refY="3.8990363547948754"><path id="ProcessOnPath1054" d="M12.0 3.8990363547948754L0.0 7.798072709589751V0.0Z" stroke="#323232" stroke-width="2.0" fill="#323232" transform="matrix(1.0,0.0,0.0,1.0,0.0,0.0)"/></marker><marker id="ProcessOnMarker1065" markerUnits="userSpaceOnUse" orient="auto" markerWidth="16.23606797749979" markerHeight="10.550836550532098" viewBox="-1.0 -1.3763819204711736 16.23606797749979 10.550836550532098" refX="-1.0" refY="3.8990363547948754"><path id="ProcessOnPath1066" d="M12.0 3.8990363547948754L0.0 7.798072709589751V0.0Z" stroke="#323232" stroke-width="2.0" fill="#323232" transform="matrix(1.0,0.0,0.0,1.0,0.0,0.0)"/></marker><marker id="ProcessOnMarker1077" markerUnits="userSpaceOnUse" orient="auto" markerWidth="16.23606797749979" markerHeight="10.550836550532098" viewBox="-1.0 -1.3763819204711736 16.23606797749979 10.550836550532098" refX="-1.0" refY="3.8990363547948754"><path id="ProcessOnPath1078" d="M12.0 3.8990363547948754L0.0 7.798072709589751V0.0Z" stroke="#323232" stroke-width="2.0" fill="#323232" transform="matrix(1.0,0.0,0.0,1.0,0.0,0.0)"/></marker><marker id="ProcessOnMarker1090" markerUnits="userSpaceOnUse" orient="auto" markerWidth="16.23606797749979" markerHeight="10.550836550532098" viewBox="-1.0 -1.3763819204711736 16.23606797749979 10.550836550532098" refX="-1.0" refY="3.8990363547948754"><path id="ProcessOnPath1091" d="M12.0 3.8990363547948754L0.0 7.798072709589751V0.0Z" stroke="#323232" stroke-width="2.0" fill="#323232" transform="matrix(1.0,0.0,0.0,1.0,0.0,0.0)"/></marker><marker id="ProcessOnMarker1099" markerUnits="userSpaceOnUse" orient="auto" markerWidth="16.23606797749979" markerHeight="10.550836550532098" viewBox="-1.0 -1.3763819204711736 16.23606797749979 10.550836550532098" refX="-1.0" refY="3.8990363547948754"><path id="ProcessOnPath1100" d="M12.0 3.8990363547948754L0.0 7.798072709589751V0.0Z" stroke="#323232" stroke-width="2.0" fill="#323232" transform="matrix(1.0,0.0,0.0,1.0,0.0,0.0)"/></marker><marker id="ProcessOnMarker1103" markerUnits="userSpaceOnUse" orient="auto" markerWidth="16.23606797749979" markerHeight="10.550836550532098" viewBox="-1.0 -1.3763819204711736 16.23606797749979 10.550836550532098" refX="-1.0" refY="3.8990363547948754"><path id="ProcessOnPath1104" d="M12.0 3.8990363547948754L0.0 7.798072709589751V0.0Z" stroke="#323232" stroke-width="2.0" fill="#323232" transform="matrix(1.0,0.0,0.0,1.0,0.0,0.0)"/></marker><marker id="ProcessOnMarker1112" markerUnits="userSpaceOnUse" orient="auto" markerWidth="16.23606797749979" markerHeight="10.550836550532098" viewBox="-1.0 -1.3763819204711736 16.23606797749979 10.550836550532098" refX="-1.0" refY="3.8990363547948754"><path id="ProcessOnPath1113" d="M12.0 3.8990363547948754L0.0 7.798072709589751V0.0Z" stroke="#323232" stroke-width="2.0" fill="#323232" transform="matrix(1.0,0.0,0.0,1.0,0.0,0.0)"/></marker><marker id="ProcessOnMarker1116" markerUnits="userSpaceOnUse" orient="auto" markerWidth="16.23606797749979" markerHeight="10.550836550532098" viewBox="-1.0 -1.3763819204711736 16.23606797749979 10.550836550532098" refX="-1.0" refY="3.8990363547948754"><path id="ProcessOnPath1117" d="M12.0 3.8990363547948754L0.0 7.798072709589751V0.0Z" stroke="#323232" stroke-width="2.0" fill="#323232" transform="matrix(1.0,0.0,0.0,1.0,0.0,0.0)"/></marker><marker id="ProcessOnMarker1120" markerUnits="userSpaceOnUse" orient="auto" markerWidth="16.23606797749979" markerHeight="10.550836550532098" viewBox="-1.0 -1.3763819204711736 16.23606797749979 10.550836550532098" refX="-1.0" refY="3.8990363547948754"><path id="ProcessOnPath1121" d="M12.0 3.8990363547948754L0.0 7.798072709589751V0.0Z" stroke="#323232" stroke-width="2.0" fill="#323232" transform="matrix(1.0,0.0,0.0,1.0,0.0,0.0)"/></marker><marker id="ProcessOnMarker1124" markerUnits="userSpaceOnUse" orient="auto" markerWidth="16.23606797749979" markerHeight="10.550836550532098" viewBox="-1.0 -1.3763819204711736 16.23606797749979 10.550836550532098" refX="-1.0" refY="3.8990363547948754"><path id="ProcessOnPath1125" d="M12.0 3.8990363547948754L0.0 7.798072709589751V0.0Z" stroke="#323232" stroke-width="2.0" fill="#323232" transform="matrix(1.0,0.0,0.0,1.0,0.0,0.0)"/></marker><marker id="ProcessOnMarker1134" markerUnits="userSpaceOnUse" orient="auto" markerWidth="16.23606797749979" markerHeight="10.550836550532098" viewBox="-1.0 -1.3763819204711736 16.23606797749979 10.550836550532098" refX="-1.0" refY="3.8990363547948754"><path id="ProcessOnPath1135" d="M12.0 3.8990363547948754L0.0 7.798072709589751V0.0Z" stroke="#323232" stroke-width="2.0" fill="#323232" transform="matrix(1.0,0.0,0.0,1.0,0.0,0.0)"/></marker><marker id="ProcessOnMarker1138" markerUnits="userSpaceOnUse" orient="auto" markerWidth="16.23606797749979" markerHeight="10.550836550532098" viewBox="-1.0 -1.3763819204711736 16.23606797749979 10.550836550532098" refX="-1.0" refY="3.8990363547948754"><path id="ProcessOnPath1139" d="M12.0 3.8990363547948754L0.0 7.798072709589751V0.0Z" stroke="#323232" stroke-width="2.0" fill="#323232" transform="matrix(1.0,0.0,0.0,1.0,0.0,0.0)"/></marker></defs><g id="ProcessOnG1002"><path id="ProcessOnPath1003" d="M89.0 358.0H946.0V823.125H89.0V358.0Z" fill="none"/><g id="ProcessOnG1004"><g id="ProcessOnG1005" transform="matrix(1.0,0.0,0.0,1.0,229.0,378.0)" opacity="1.0"><path id="ProcessOnPath1006" d="M0.0 4.0Q0.0 0.0 4.0 0.0L548.0 0.0Q552.0 0.0 552.0 4.0L552.0 393.5Q552.0 397.5 548.0 397.5L4.0 397.5Q0.0 397.5 0.0 393.5Z" stroke="#323232" stroke-width="2.0" stroke-dasharray="none" opacity="1.0" fill="#ffffff"/><g id="ProcessOnG1007" transform="matrix(1.0,0.0,0.0,1.0,5.0,2.0)"><text id="ProcessOnText1008" fill="#000000" font-weight="normal" font-style="normal" text-decoration="blink" font-family="微软雅黑" text-anchor="start" font-size="13" x="0.0" y="13.325">NameSpace</text></g></g><g id="ProcessOnG1009" transform="matrix(1.0,0.0,0.0,1.0,585.5,498.0)" opacity="1.0"><path id="ProcessOnPath1010" d="M0.0 0.0L78.0 0.0L78.0 28.0L0.0 28.0Z" stroke="#323232" stroke-width="2.0" stroke-dasharray="none" opacity="1.0" fill="#ffffff"/><g id="ProcessOnG1011" transform="matrix(1.0,0.0,0.0,1.0,10.0,5.875)"><text id="ProcessOnText1012" fill="#000000" font-weight="normal" font-style="normal" text-decoration="blink" font-family="微软雅黑" text-anchor="middle" font-size="13" x="29.0" y="13.325">QueueB</text></g></g><g id="ProcessOnG1013" transform="matrix(1.0,0.0,0.0,1.0,268.0,498.5)" opacity="1.0"><path id="ProcessOnPath1014" d="M0.0 0.0L78.0 0.0L78.0 28.0L0.0 28.0Z" stroke="#323232" stroke-width="2.0" stroke-dasharray="none" opacity="1.0" fill="#ffffff"/><g id="ProcessOnG1015" transform="matrix(1.0,0.0,0.0,1.0,10.0,5.875)"><text id="ProcessOnText1016" fill="#000000" font-weight="normal" font-style="normal" text-decoration="blink" font-family="微软雅黑" text-anchor="middle" font-size="13" x="29.0" y="13.325">TopicA</text></g></g><g id="ProcessOnG1017" transform="matrix(1.0,0.0,0.0,1.0,585.5,582.5)" opacity="1.0"><path id="ProcessOnPath1018" d="M0.0 0.0L78.0 0.0L78.0 28.0L0.0 28.0Z" stroke="#323232" stroke-width="2.0" stroke-dasharray="none" opacity="1.0" fill="#ffffff"/><g id="ProcessOnG1019" transform="matrix(1.0,0.0,0.0,1.0,10.0,5.875)"><text id="ProcessOnText1020" fill="#000000" font-weight="normal" font-style="normal" text-decoration="blink" font-family="微软雅黑" text-anchor="middle" font-size="13" x="29.0" y="13.325">QueueC</text></g></g><g id="ProcessOnG1021"><path id="ProcessOnPath1022" d="M521.0 596.5C546.8 596.5 559.7 596.5 570.2639320225002 596.5" stroke="#323232" stroke-width="2.0" stroke-dasharray="none" fill="none" marker-end="url(#ProcessOnMarker1023)"/></g><g id="ProcessOnG1025" transform="matrix(1.0,0.0,0.0,1.0,268.0,629.0)" opacity="1.0"><path id="ProcessOnPath1026" d="M0.0 0.0L78.0 0.0L78.0 28.0L0.0 28.0Z" stroke="#323232" stroke-width="2.0" stroke-dasharray="none" opacity="1.0" fill="#ffffff"/><g id="ProcessOnG1027" transform="matrix(1.0,0.0,0.0,1.0,10.0,5.875)"><text id="ProcessOnText1028" fill="#000000" font-weight="normal" font-style="normal" text-decoration="blink" font-family="微软雅黑" text-anchor="middle" font-size="13" x="29.0" y="13.325">TopicB</text></g></g><g id="ProcessOnG1029" transform="matrix(1.0,0.0,0.0,1.0,585.5,688.5)" opacity="1.0"><path id="ProcessOnPath1030" d="M0.0 0.0L78.0 0.0L78.0 28.0L0.0 28.0Z" stroke="#323232" stroke-width="2.0" stroke-dasharray="none" opacity="1.0" fill="#ffffff"/><g id="ProcessOnG1031" transform="matrix(1.0,0.0,0.0,1.0,10.0,5.875)"><text id="ProcessOnText1032" fill="#000000" font-weight="normal" font-style="normal" text-decoration="blink" font-family="微软雅黑" text-anchor="middle" font-size="13" x="29.0" y="13.325">QueueD</text></g></g><g id="ProcessOnG1033" transform="matrix(1.0,0.0,0.0,1.0,585.5,396.0)" opacity="1.0"><path id="ProcessOnPath1034" d="M0.0 0.0L78.0 0.0L78.0 28.0L0.0 28.0Z" stroke="#323232" stroke-width="2.0" stroke-dasharray="none" opacity="1.0" fill="#ffffff"/><g id="ProcessOnG1035" transform="matrix(1.0,0.0,0.0,1.0,10.0,5.875)"><text id="ProcessOnText1036" fill="#000000" font-weight="normal" font-style="normal" text-decoration="blink" font-family="微软雅黑" text-anchor="middle" font-size="13" x="29.0" y="13.325">QueueA</text></g></g><g id="ProcessOnG1037"><path id="ProcessOnPath1038" d="M530.0 512.0C552.2 512.0 563.3 512.0 570.2639320225002 512.0" stroke="#323232" stroke-width="2.0" stroke-dasharray="none" fill="none" marker-end="url(#ProcessOnMarker1039)"/></g><g id="ProcessOnG1041"><path id="ProcessOnPath1042" d="M521.0 702.5C546.8 702.5 559.7 702.5 570.2639320225002 702.5" stroke="#323232" stroke-width="2.0" stroke-dasharray="none" fill="none" marker-end="url(#ProcessOnMarker1043)"/></g><g id="ProcessOnG1045" transform="matrix(1.0,0.0,0.0,1.0,872.0,501.5)" opacity="1.0"><path id="ProcessOnPath1046" d="M11.333333333333332 4.6875C11.333333333333332 -1.5625 22.666666666666664 -1.5625 22.666666666666664 4.6875C22.666666666666664 10.9375 11.333333333333332 10.9375 11.333333333333332 4.6875M17.0 9.375L17.0 28.125M17.0 28.125L2.833333333333333 37.5M17.0 28.125L31.166666666666664 37.5M0.0 18.75L34.0 18.75" stroke="#323232" stroke-width="2.0" stroke-dasharray="none" opacity="1.0" fill="#ffffff"/><path id="ProcessOnPath1047" d="M0.0 0.0L34.0 0.0L34.0 37.5L0.0 37.5Z" stroke="#323232" stroke-width="0.0" stroke-dasharray="none" opacity="1.0" fill="none"/><g id="ProcessOnG1048" transform="matrix(1.0,0.0,0.0,1.0,-20.0,36.25)"><text id="ProcessOnText1049" fill="#000000" font-weight="normal" font-style="normal" text-decoration="blink" font-family="微软雅黑" text-anchor="middle" font-size="13" x="37.0" y="13.325">Iterable</text><text id="ProcessOnText1050" fill="#000000" font-weight="normal" font-style="normal" text-decoration="blink" font-family="微软雅黑" text-anchor="middle" font-size="13" x="37.0" y="29.575">Consumer</text></g></g><g id="ProcessOnG1051"><path id="ProcessOnPath1052" d="M663.5 596.5C752.3020833088954 596.5 783.1979166911046 520.25 856.7639320225002 520.25" stroke="#323232" stroke-width="2.0" stroke-dasharray="none" fill="none" marker-end="url(#ProcessOnMarker1053)"/><g id="ProcessOnG1055" transform="matrix(1.0,0.0,0.0,1.0,765.8454915028125,550.25)"><path id="ProcessOnPath1056" d="M0 0H55.0V16.25H0Z" fill="#fff" transform="matrix(1.0,0.0,0.0,1.0,-27.5,0.0)"/><text id="ProcessOnText1057" fill="#000000" font-weight="normal" font-style="normal" text-decoration="blink" font-family="微软雅黑" text-anchor="middle" font-size="13" x="0.0" y="13.325">exclusive</text></g></g><g id="ProcessOnG1058" transform="matrix(1.0,0.0,0.0,1.0,872.0,641.5)" opacity="1.0"><path id="ProcessOnPath1059" d="M11.333333333333332 4.6875C11.333333333333332 -1.5625 22.666666666666664 -1.5625 22.666666666666664 4.6875C22.666666666666664 10.9375 11.333333333333332 10.9375 11.333333333333332 4.6875M17.0 9.375L17.0 28.125M17.0 28.125L2.833333333333333 37.5M17.0 28.125L31.166666666666664 37.5M0.0 18.75L34.0 18.75" stroke="#323232" stroke-width="2.0" stroke-dasharray="none" opacity="1.0" fill="#ffffff"/><path id="ProcessOnPath1060" d="M0.0 0.0L34.0 0.0L34.0 37.5L0.0 37.5Z" stroke="#323232" stroke-width="0.0" stroke-dasharray="none" opacity="1.0" fill="none"/><g id="ProcessOnG1061" transform="matrix(1.0,0.0,0.0,1.0,-20.0,44.375)"><text id="ProcessOnText1062" fill="#000000" font-weight="normal" font-style="normal" text-decoration="blink" font-family="微软雅黑" text-anchor="middle" font-size="13" x="37.0" y="13.325">Consumer</text></g></g><g id="ProcessOnG1063"><path id="ProcessOnPath1064" d="M663.5 702.5C748.5950644867257 702.5 786.9049355132743 660.25 856.7639320225002 660.25" stroke="#323232" stroke-width="2.0" stroke-dasharray="none" fill="none" marker-end="url(#ProcessOnMarker1065)"/><g id="ProcessOnG1067" transform="matrix(1.0,0.0,0.0,1.0,765.8454915028125,673.25)"><path id="ProcessOnPath1068" d="M0 0H85.0V16.25H0Z" fill="#fff" transform="matrix(1.0,0.0,0.0,1.0,-42.5,0.0)"/><text id="ProcessOnText1069" fill="#000000" font-weight="normal" font-style="normal" text-decoration="blink" font-family="微软雅黑" text-anchor="middle" font-size="13" x="0.0" y="13.325">non-exclusive</text></g></g><g id="ProcessOnG1070" transform="matrix(1.0,0.0,0.0,1.0,872.0,742.5)" opacity="1.0"><path id="ProcessOnPath1071" d="M11.333333333333332 4.6875C11.333333333333332 -1.5625 22.666666666666664 -1.5625 22.666666666666664 4.6875C22.666666666666664 10.9375 11.333333333333332 10.9375 11.333333333333332 4.6875M17.0 9.375L17.0 28.125M17.0 28.125L2.833333333333333 37.5M17.0 28.125L31.166666666666664 37.5M0.0 18.75L34.0 18.75" stroke="#323232" stroke-width="2.0" stroke-dasharray="none" opacity="1.0" fill="#ffffff"/><path id="ProcessOnPath1072" d="M0.0 0.0L34.0 0.0L34.0 37.5L0.0 37.5Z" stroke="#323232" stroke-width="0.0" stroke-dasharray="none" opacity="1.0" fill="none"/><g id="ProcessOnG1073" transform="matrix(1.0,0.0,0.0,1.0,-20.0,44.375)"><text id="ProcessOnText1074" fill="#000000" font-weight="normal" font-style="normal" text-decoration="blink" font-family="微软雅黑" text-anchor="middle" font-size="13" x="37.0" y="13.325">Consumer</text></g></g><g id="ProcessOnG1075"><path id="ProcessOnPath1076" d="M663.5 702.5C750.1476197018707 702.5 785.3523802981293 761.25 856.7639320225002 761.25" stroke="#323232" stroke-width="2.0" stroke-dasharray="none" fill="none" marker-end="url(#ProcessOnMarker1077)"/><g id="ProcessOnG1079" transform="matrix(1.0,0.0,0.0,1.0,765.8454915028125,723.75)"><path id="ProcessOnPath1080" d="M0 0H85.0V16.25H0Z" fill="#fff" transform="matrix(1.0,0.0,0.0,1.0,-42.5,0.0)"/><text id="ProcessOnText1081" fill="#000000" font-weight="normal" font-style="normal" text-decoration="blink" font-family="微软雅黑" text-anchor="middle" font-size="13" x="0.0" y="13.325">non-exclusive</text></g></g><g id="ProcessOnG1082" transform="matrix(1.0,0.0,0.0,1.0,872.0,391.25)" opacity="1.0"><path id="ProcessOnPath1083" d="M11.333333333333332 4.6875C11.333333333333332 -1.5625 22.666666666666664 -1.5625 22.666666666666664 4.6875C22.666666666666664 10.9375 11.333333333333332 10.9375 11.333333333333332 4.6875M17.0 9.375L17.0 28.125M17.0 28.125L2.833333333333333 37.5M17.0 28.125L31.166666666666664 37.5M0.0 18.75L34.0 18.75" stroke="#323232" stroke-width="2.0" stroke-dasharray="none" opacity="1.0" fill="#ffffff"/><path id="ProcessOnPath1084" d="M0.0 0.0L34.0 0.0L34.0 37.5L0.0 37.5Z" stroke="#323232" stroke-width="0.0" stroke-dasharray="none" opacity="1.0" fill="none"/><g id="ProcessOnG1085" transform="matrix(1.0,0.0,0.0,1.0,-20.0,36.25)"><text id="ProcessOnText1086" fill="#000000" font-weight="normal" font-style="normal" text-decoration="blink" font-family="微软雅黑" text-anchor="middle" font-size="13" x="37.0" y="13.325">Push</text><text id="ProcessOnText1087" fill="#000000" font-weight="normal" font-style="normal" text-decoration="blink" font-family="微软雅黑" text-anchor="middle" font-size="13" x="37.0" y="29.575">Consumer</text></g></g><g id="ProcessOnG1088"><path id="ProcessOnPath1089" d="M663.5 410.0C746.9 410.0 788.6 410.0 856.7639320225002 410.0" stroke="#323232" stroke-width="2.0" stroke-dasharray="none" fill="none" marker-end="url(#ProcessOnMarker1090)"/></g><g id="ProcessOnG1092" transform="matrix(1.0,0.0,0.0,1.0,129.0,553.5)" opacity="1.0"><path id="ProcessOnPath1093" d="M11.333333333333332 4.6875C11.333333333333332 -1.5625 22.666666666666664 -1.5625 22.666666666666664 4.6875C22.666666666666664 10.9375 11.333333333333332 10.9375 11.333333333333332 4.6875M17.0 9.375L17.0 28.125M17.0 28.125L2.833333333333333 37.5M17.0 28.125L31.166666666666664 37.5M0.0 18.75L34.0 18.75" stroke="#323232" stroke-width="2.0" stroke-dasharray="none" opacity="1.0" fill="#ffffff"/><path id="ProcessOnPath1094" d="M0.0 0.0L34.0 0.0L34.0 37.5L0.0 37.5Z" stroke="#323232" stroke-width="0.0" stroke-dasharray="none" opacity="1.0" fill="none"/><g id="ProcessOnG1095" transform="matrix(1.0,0.0,0.0,1.0,-20.0,44.375)"><text id="ProcessOnText1096" fill="#000000" font-weight="normal" font-style="normal" text-decoration="blink" font-family="微软雅黑" text-anchor="middle" font-size="13" x="37.0" y="13.325">Producer</text></g></g><g id="ProcessOnG1097"><path id="ProcessOnPath1098" d="M163.0 572.25C211.32401059514825 572.25 219.67598940485175 512.5 252.7639320225002 512.5" stroke="#323232" stroke-width="2.0" stroke-dasharray="none" fill="none" marker-end="url(#ProcessOnMarker1099)"/></g><g id="ProcessOnG1101"><path id="ProcessOnPath1102" d="M163.0 572.25C213.6447430638166 572.25 217.3552569361834 643.0 252.7639320225002 643.0" stroke="#323232" stroke-width="2.0" stroke-dasharray="none" fill="none" marker-end="url(#ProcessOnMarker1103)"/></g><g id="ProcessOnG1105" transform="matrix(1.0,0.0,0.0,1.0,129.0,391.25)" opacity="1.0"><path id="ProcessOnPath1106" d="M11.333333333333332 4.6875C11.333333333333332 -1.5625 22.666666666666664 -1.5625 22.666666666666664 4.6875C22.666666666666664 10.9375 11.333333333333332 10.9375 11.333333333333332 4.6875M17.0 9.375L17.0 28.125M17.0 28.125L2.833333333333333 37.5M17.0 28.125L31.166666666666664 37.5M0.0 18.75L34.0 18.75" stroke="#323232" stroke-width="2.0" stroke-dasharray="none" opacity="1.0" fill="#ffffff"/><path id="ProcessOnPath1107" d="M0.0 0.0L34.0 0.0L34.0 37.5L0.0 37.5Z" stroke="#323232" stroke-width="0.0" stroke-dasharray="none" opacity="1.0" fill="none"/><g id="ProcessOnG1108" transform="matrix(1.0,0.0,0.0,1.0,-20.0,44.375)"><text id="ProcessOnText1109" fill="#000000" font-weight="normal" font-style="normal" text-decoration="blink" font-family="微软雅黑" text-anchor="middle" font-size="13" x="37.0" y="13.325">Producer</text></g></g><g id="ProcessOnG1110"><path id="ProcessOnPath1111" d="M163.0 410.0C332.0 410.0 416.5 410.0 570.2639320225002 410.0" stroke="#323232" stroke-width="2.0" stroke-dasharray="none" fill="none" marker-end="url(#ProcessOnMarker1112)"/></g><g id="ProcessOnG1114"><path id="ProcessOnPath1115" d="M346.0 512.5C377.200641019056 512.5 392.799358980944 512.0 408.7639320225002 512.0" stroke="#323232" stroke-width="2.0" stroke-dasharray="none" fill="none" marker-end="url(#ProcessOnMarker1116)"/></g><g id="ProcessOnG1118"><path id="ProcessOnPath1119" d="M346.0 643.0C381.29815859219855 643.0 385.70184140780145 596.5 405.7639320225002 596.5" stroke="#323232" stroke-width="2.0" stroke-dasharray="none" fill="none" marker-end="url(#ProcessOnMarker1120)"/></g><g id="ProcessOnG1122"><path id="ProcessOnPath1123" d="M346.0 643.0C384.2941248757561 643.0 382.7058751242439 702.5 405.7639320225002 702.5" stroke="#323232" stroke-width="2.0" stroke-dasharray="none" fill="none" marker-end="url(#ProcessOnMarker1124)"/></g><g id="ProcessOnG1126" transform="matrix(1.0,0.0,0.0,1.0,129.0,691.0)" opacity="1.0"><path id="ProcessOnPath1127" d="M11.333333333333332 4.6875C11.333333333333332 -1.5625 22.666666666666664 -1.5625 22.666666666666664 4.6875C22.666666666666664 10.9375 11.333333333333332 10.9375 11.333333333333332 4.6875M17.0 9.375L17.0 28.125M17.0 28.125L2.833333333333333 37.5M17.0 28.125L31.166666666666664 37.5M0.0 18.75L34.0 18.75" stroke="#323232" stroke-width="2.0" stroke-dasharray="none" opacity="1.0" fill="#ffffff"/><path id="ProcessOnPath1128" d="M0.0 0.0L34.0 0.0L34.0 37.5L0.0 37.5Z" stroke="#323232" stroke-width="0.0" stroke-dasharray="none" opacity="1.0" fill="none"/><g id="ProcessOnG1129" transform="matrix(1.0,0.0,0.0,1.0,-20.0,36.25)"><text id="ProcessOnText1130" fill="#000000" font-weight="normal" font-style="normal" text-decoration="blink" font-family="微软雅黑" text-anchor="middle" font-size="13" x="37.0" y="13.325">Sequence</text><text id="ProcessOnText1131" fill="#000000" font-weight="normal" font-style="normal" text-decoration="blink" font-family="微软雅黑" text-anchor="middle" font-size="13" x="37.0" y="29.575">Producer</text></g></g><g id="ProcessOnG1132"><path id="ProcessOnPath1133" d="M163.0 709.75C212.76836344506418 709.75 218.23163655493582 643.0 252.7639320225002 643.0" stroke="#323232" stroke-width="2.0" stroke-dasharray="none" fill="none" marker-end="url(#ProcessOnMarker1134)"/></g><g id="ProcessOnG1136"><path id="ProcessOnPath1137" d="M663.5 512.0C756.3450321772791 512.0 779.1549678227209 410.0 856.7639320225002 410.0" stroke="#323232" stroke-width="2.0" stroke-dasharray="none" fill="none" marker-end="url(#ProcessOnMarker1138)"/></g><g id="ProcessOnG1140" transform="matrix(1.0,0.0,0.0,1.0,424.0,493.5)" opacity="1.0"><path id="ProcessOnPath1141" d="M15.899999999999999 0.0L99.83333333333333 0.0C107.68181818181819 0.0 107.68181818181819 37.0 99.83333333333333 37.0L15.899999999999999 37.0C-5.300000000000001 37.0 -5.300000000000001 0.0 15.899999999999999 0.0ZM99.83333333333333 0.0C92.125 0.0 92.125 37.0 99.83333333333333 37.0C92.125 37.0 92.125 0.0 99.83333333333333 0.0" stroke="#323232" stroke-width="2.0" stroke-dasharray="none" opacity="1.0" fill="#ffffff"/></g><g id="ProcessOnG1142" transform="matrix(1.0,0.0,0.0,1.0,432.5,500.5)" opacity="1.0"><path id="ProcessOnPath1143" d="M0.0 0.0L23.055555555555554 0.0L27.666666666666664 11.5L23.055555555555554 23.0L0.0 23.0L0.0 0.0Z" stroke="#323232" stroke-width="2.0" stroke-dasharray="none" opacity="1.0" fill="#ffffff"/><g id="ProcessOnG1144" transform="matrix(1.0,0.0,0.0,1.0,2.7666666666666666,5.0)"><text id="ProcessOnText1145" fill="#000000" font-weight="normal" font-style="normal" text-decoration="blink" font-family="微软雅黑" text-anchor="middle" font-size="12" x="9.222222222222221" y="12.3">op</text></g></g><g id="ProcessOnG1146" transform="matrix(1.0,0.0,0.0,1.0,460.16666666666663,500.5)" opacity="1.0"><path id="ProcessOnPath1147" d="M0.0 0.0L23.055555555555554 0.0L27.666666666666664 11.5L23.055555555555554 23.0L0.0 23.0L0.0 0.0Z" stroke="#323232" stroke-width="2.0" stroke-dasharray="none" opacity="1.0" fill="#ffffff"/><g id="ProcessOnG1148" transform="matrix(1.0,0.0,0.0,1.0,2.7666666666666666,5.0)"><text id="ProcessOnText1149" fill="#000000" font-weight="normal" font-style="normal" text-decoration="blink" font-family="微软雅黑" text-anchor="middle" font-size="12" x="9.222222222222221" y="12.3">op</text></g></g><g id="ProcessOnG1150" transform="matrix(1.0,0.0,0.0,1.0,487.83333333333337,500.5)" opacity="1.0"><path id="ProcessOnPath1151" d="M0.0 0.0L23.055555555555554 0.0L27.666666666666664 11.5L23.055555555555554 23.0L0.0 23.0L0.0 0.0Z" stroke="#323232" stroke-width="2.0" stroke-dasharray="none" opacity="1.0" fill="#ffffff"/><g id="ProcessOnG1152" transform="matrix(1.0,0.0,0.0,1.0,2.7666666666666666,2.0)"><text id="ProcessOnText1153" fill="#000000" font-weight="normal" font-style="normal" text-decoration="blink" font-family="微软雅黑" text-anchor="middle" font-size="12" x="9.222222222222221" y="12.3">...</text></g></g><g id="ProcessOnG1154" transform="matrix(1.0,0.0,0.0,1.0,446.0,470.5)" opacity="1.0"><path id="ProcessOnPath1155" d="M0.0 0.0L62.0 0.0L62.0 23.0L0.0 23.0Z" stroke="#323232" stroke-width="0.0" stroke-dasharray="none" opacity="1.0" fill="none"/><g id="ProcessOnG1156" transform="matrix(1.0,0.0,0.0,1.0,0.0,4.0)"><text id="ProcessOnText1157" fill="#000000" font-weight="normal" font-style="normal" text-decoration="blink" font-family="微软雅黑" text-anchor="middle" font-size="12" x="31.0" y="12.3">Routing</text></g></g><g id="ProcessOnG1158" transform="matrix(1.0,0.0,0.0,1.0,420.99999999999994,582.0)" opacity="1.0"><path id="ProcessOnPath1159" d="M15.899999999999999 0.0L99.83333333333333 0.0C107.68181818181819 0.0 107.68181818181819 37.0 99.83333333333333 37.0L15.899999999999999 37.0C-5.300000000000001 37.0 -5.300000000000001 0.0 15.899999999999999 0.0ZM99.83333333333333 0.0C92.125 0.0 92.125 37.0 99.83333333333333 37.0C92.125 37.0 92.125 0.0 99.83333333333333 0.0" stroke="#323232" stroke-width="2.0" stroke-dasharray="none" opacity="1.0" fill="#ffffff"/></g><g id="ProcessOnG1160" transform="matrix(1.0,0.0,0.0,1.0,429.49999999999994,589.0)" opacity="1.0"><path id="ProcessOnPath1161" d="M0.0 0.0L23.055555555555554 0.0L27.666666666666664 11.5L23.055555555555554 23.0L0.0 23.0L0.0 0.0Z" stroke="#323232" stroke-width="2.0" stroke-dasharray="none" opacity="1.0" fill="#ffffff"/><g id="ProcessOnG1162" transform="matrix(1.0,0.0,0.0,1.0,2.7666666666666666,5.0)"><text id="ProcessOnText1163" fill="#000000" font-weight="normal" font-style="normal" text-decoration="blink" font-family="微软雅黑" text-anchor="middle" font-size="12" x="9.222222222222221" y="12.3">op</text></g></g><g id="ProcessOnG1164" transform="matrix(1.0,0.0,0.0,1.0,457.1666666666666,589.0)" opacity="1.0"><path id="ProcessOnPath1165" d="M0.0 0.0L23.055555555555554 0.0L27.666666666666664 11.5L23.055555555555554 23.0L0.0 23.0L0.0 0.0Z" stroke="#323232" stroke-width="2.0" stroke-dasharray="none" opacity="1.0" fill="#ffffff"/><g id="ProcessOnG1166" transform="matrix(1.0,0.0,0.0,1.0,2.7666666666666666,5.0)"><text id="ProcessOnText1167" fill="#000000" font-weight="normal" font-style="normal" text-decoration="blink" font-family="微软雅黑" text-anchor="middle" font-size="12" x="9.222222222222221" y="12.3">op</text></g></g><g id="ProcessOnG1168" transform="matrix(1.0,0.0,0.0,1.0,484.8333333333333,589.0)" opacity="1.0"><path id="ProcessOnPath1169" d="M0.0 0.0L23.055555555555554 0.0L27.666666666666664 11.5L23.055555555555554 23.0L0.0 23.0L0.0 0.0Z" stroke="#323232" stroke-width="2.0" stroke-dasharray="none" opacity="1.0" fill="#ffffff"/><g id="ProcessOnG1170" transform="matrix(1.0,0.0,0.0,1.0,2.7666666666666666,2.0)"><text id="ProcessOnText1171" fill="#000000" font-weight="normal" font-style="normal" text-decoration="blink" font-family="微软雅黑" text-anchor="middle" font-size="12" x="9.222222222222221" y="12.3">...</text></g></g><g id="ProcessOnG1172" transform="matrix(1.0,0.0,0.0,1.0,442.99999999999994,559.0)" opacity="1.0"><path id="ProcessOnPath1173" d="M0.0 0.0L62.0 0.0L62.0 23.0L0.0 23.0Z" stroke="#323232" stroke-width="0.0" stroke-dasharray="none" opacity="1.0" fill="none"/><g id="ProcessOnG1174" transform="matrix(1.0,0.0,0.0,1.0,0.0,4.0)"><text id="ProcessOnText1175" fill="#000000" font-weight="normal" font-style="normal" text-decoration="blink" font-family="微软雅黑" text-anchor="middle" font-size="12" x="31.0" y="12.3">Routing</text></g></g><g id="ProcessOnG1176" transform="matrix(1.0,0.0,0.0,1.0,420.99999999999994,686.0)" opacity="1.0"><path id="ProcessOnPath1177" d="M15.899999999999999 0.0L99.83333333333333 0.0C107.68181818181819 0.0 107.68181818181819 37.0 99.83333333333333 37.0L15.899999999999999 37.0C-5.300000000000001 37.0 -5.300000000000001 0.0 15.899999999999999 0.0ZM99.83333333333333 0.0C92.125 0.0 92.125 37.0 99.83333333333333 37.0C92.125 37.0 92.125 0.0 99.83333333333333 0.0" stroke="#323232" stroke-width="2.0" stroke-dasharray="none" opacity="1.0" fill="#ffffff"/></g><g id="ProcessOnG1178" transform="matrix(1.0,0.0,0.0,1.0,429.49999999999994,693.0)" opacity="1.0"><path id="ProcessOnPath1179" d="M0.0 0.0L23.055555555555554 0.0L27.666666666666664 11.5L23.055555555555554 23.0L0.0 23.0L0.0 0.0Z" stroke="#323232" stroke-width="2.0" stroke-dasharray="none" opacity="1.0" fill="#ffffff"/><g id="ProcessOnG1180" transform="matrix(1.0,0.0,0.0,1.0,2.7666666666666666,5.0)"><text id="ProcessOnText1181" fill="#000000" font-weight="normal" font-style="normal" text-decoration="blink" font-family="微软雅黑" text-anchor="middle" font-size="12" x="9.222222222222221" y="12.3">op</text></g></g><g id="ProcessOnG1182" transform="matrix(1.0,0.0,0.0,1.0,457.1666666666666,693.0)" opacity="1.0"><path id="ProcessOnPath1183" d="M0.0 0.0L23.055555555555554 0.0L27.666666666666664 11.5L23.055555555555554 23.0L0.0 23.0L0.0 0.0Z" stroke="#323232" stroke-width="2.0" stroke-dasharray="none" opacity="1.0" fill="#ffffff"/><g id="ProcessOnG1184" transform="matrix(1.0,0.0,0.0,1.0,2.7666666666666666,5.0)"><text id="ProcessOnText1185" fill="#000000" font-weight="normal" font-style="normal" text-decoration="blink" font-family="微软雅黑" text-anchor="middle" font-size="12" x="9.222222222222221" y="12.3">op</text></g></g><g id="ProcessOnG1186" transform="matrix(1.0,0.0,0.0,1.0,484.83333333333337,693.0)" opacity="1.0"><path id="ProcessOnPath1187" d="M0.0 0.0L23.055555555555554 0.0L27.666666666666664 11.5L23.055555555555554 23.0L0.0 23.0L0.0 0.0Z" stroke="#323232" stroke-width="2.0" stroke-dasharray="none" opacity="1.0" fill="#ffffff"/><g id="ProcessOnG1188" transform="matrix(1.0,0.0,0.0,1.0,2.7666666666666666,2.0)"><text id="ProcessOnText1189" fill="#000000" font-weight="normal" font-style="normal" text-decoration="blink" font-family="微软雅黑" text-anchor="middle" font-size="12" x="9.222222222222221" y="12.3">...</text></g></g><g id="ProcessOnG1190" transform="matrix(1.0,0.0,0.0,1.0,442.99999999999994,663.0)" opacity="1.0"><path id="ProcessOnPath1191" d="M0.0 0.0L62.0 0.0L62.0 23.0L0.0 23.0Z" stroke="#323232" stroke-width="0.0" stroke-dasharray="none" opacity="1.0" fill="none"/><g id="ProcessOnG1192" transform="matrix(1.0,0.0,0.0,1.0,0.0,4.0)"><text id="ProcessOnText1193" fill="#000000" font-weight="normal" font-style="normal" text-decoration="blink" font-family="微软雅黑" text-anchor="middle" font-size="12" x="31.0" y="12.3">Routing</text></g></g></g></g></svg>